<svg viewBox="190.35 220.774 624 566" xmlns="http://www.w3.org/2000/svg" data-name="Layer 1" id="Layer_1" style="max-height: 500px" width="624" height="566">
  <defs>
    <style>
      .cls-1, .cls-2 {
        font-family: Kanit-Regular, Kanit;
        font-size: 66.73px;
      }

      .cls-1, .cls-3 {
        fill: #1bbc6f;
      }

      .cls-4 {
        letter-spacing: 0em;
      }

      .cls-5, .cls-6, .cls-7, .cls-3, .cls-8 {
        stroke-width: 0px;
      }

      .cls-5, .cls-2 {
        fill: #727272;
      }

      .cls-9 {
        letter-spacing: -.03em;
      }

      .cls-7 {
        fill: none;
      }

      .cls-10, .cls-8 {
        opacity: .15;
      }

      .cls-11 {
        letter-spacing: -.02em;
      }

      .cls-12 {
        letter-spacing: -.04em;
      }
    </style>
  </defs>
  <path d="m500,704.15c-7.71,0-15.49-.35-23.11-1.05-2.4-.22-4.74-.47-6.98-.74-13.58-1.62-27.1-4.37-40.17-8.19-2.27-.66-4.63-1.38-6.99-2.15-13.84-4.48-27.36-10.22-40.17-17.06-2.3-1.22-4.7-2.56-7.13-3.96-14.26-8.22-27.72-17.91-40-28.79-2.48-2.19-4.88-4.41-7.13-6.58-15.63-14.97-29.14-31.94-40.12-50.41-21.47-36.06-32.81-77.28-32.81-119.18,0-32.14,6.47-63.32,19.23-92.68,12.32-28.35,29.96-53.82,52.42-75.68,22.46-21.86,48.62-39.03,77.76-51.02,30.17-12.42,62.21-18.72,95.23-18.72s65.06,6.3,95.23,18.72c29.13,11.99,55.29,29.16,77.76,51.02,22.46,21.86,40.1,47.32,52.42,75.68,12.76,29.36,19.23,60.55,19.23,92.68,0,40.67-10.72,80.82-31.01,116.1-5.63,9.79-12.03,19.29-19.04,28.21-6.17,7.88-12.93,15.46-20.07,22.53-2.42,2.41-4.96,4.81-7.51,7.13-6.35,5.79-13.11,11.31-20.07,16.39-6.4,4.69-13.15,9.15-20.06,13.24-2.36,1.39-4.71,2.73-7.01,3.99-6.48,3.56-13.25,6.88-20.07,9.84-6.52,2.85-13.28,5.45-20.08,7.72-2.36.79-4.71,1.54-7,2.23-6.54,1.98-13.3,3.72-20.08,5.17-6.58,1.41-13.34,2.57-20.08,3.44-2.3.3-4.65.57-6.99.8l-.75.07c-7.79.77-15.71,1.17-23.56,1.21-.42,0-.85,0-1.27,0Zm0-448.31c-119.09,0-215.98,94.3-215.98,210.21,0,37.01,10.01,73.38,28.95,105.21,9.7,16.31,21.63,31.29,35.46,44.54,1.99,1.92,4.1,3.86,6.29,5.8,10.85,9.61,22.74,18.17,35.33,25.43,2.14,1.24,4.24,2.4,6.27,3.48,11.33,6.05,23.25,11.11,35.47,15.06,2.08.67,4.14,1.31,6.15,1.89,11.55,3.37,23.47,5.79,35.45,7.22,1.99.24,4.08.46,6.2.66,6.76.62,13.68.91,20.57.92.28,0,.55,0,.83,0h.1c7.17-.03,14.41-.41,21.51-1.13l.54-.06c1.89-.2,3.78-.42,5.63-.65,5.95-.77,11.91-1.79,17.72-3.04,5.99-1.28,11.95-2.81,17.72-4.56,2.02-.61,4.09-1.27,6.16-1.97,5.99-2.01,11.95-4.3,17.71-6.81,6.02-2.62,11.98-5.54,17.72-8.69,2.04-1.12,4.11-2.29,6.18-3.51,6.1-3.61,12.06-7.54,17.72-11.69,6.15-4.5,12.11-9.37,17.73-14.49,2.25-2.05,4.47-4.15,6.62-6.28,6.33-6.26,12.29-12.96,17.74-19.92,6.19-7.89,11.84-16.26,16.81-24.91,17.9-31.14,27.36-66.58,27.36-102.49,0-115.91-96.89-210.21-215.98-210.21Z" class="cls-5"/>
  <g>
    <polygon points="500 304.36 479.47 304.36 489.74 290.45 500 276.54 510.26 290.45 520.52 304.36 500 304.36" class="cls-3"/>
    <rect height="348.45" width="41.05" y="304.36" x="479.47" class="cls-3"/>
  </g>
  <path d="m599.95,428.98l-1.08,186.91c-5.49,4.11-11.13,7.22-16.92,10.66-5.51,3.28-11.16,6.93-16.92,9.57l1.08-207.13h33.83Z" class="cls-3"/>
  <path d="m622.75,486.38h16.91l-1.62,95.81c-5.38,6.05-11.02,11.76-16.91,17.08-5.44,4.93-11.08,9.53-16.91,13.8l1.62-126.56" class="cls-3"/>
  <path d="m394.16,486.5v129.36h-.12c-12.09-8.35-23.38-18.1-33.71-29.07v-100.42l33.83.13Z" class="cls-3"/>
  <path d="m433.88,428.98v208.63c-11.78-5.19-23.1-11.75-33.83-19.53v-189.09h33.83Z" class="cls-3"/>
  <path d="m473.59,304.36v346.75c-11.6-2.39-22.91-6.4-33.83-11.9v-289.12l33.83-45.74Z" class="cls-3"/>
  <g class="cls-10">
    <polygon points="520.52 304.36 500 304.36 500 276.54 508.59 287.98 520.52 304.36" class="cls-6"/>
    <rect height="348.45" width="20.52" y="304.36" x="500" class="cls-6"/>
  </g>
  <path d="m560.24,350.11v288.05c-5.54,2.9-11.18,5.4-16.91,7.52-5.56,2.05-11.2,3.72-16.92,5v-346.31l16.92,22.97,16.91,22.77Z" class="cls-3"/>
  <path d="m560.24,350.11v288.05c-5.54,2.9-11.18,5.4-16.91,7.52v-318.34l16.91,22.77Z" class="cls-8"/>
  <path d="m674.56,527.6c-1.82,11.89-8.79,23.17-13.91,30.9-4.53,6.85-9.43,13.37-14.67,19.51v-50.4h28.58Z" class="cls-3"/>
  <path d="m354.34,527.91l-.07,56.14c-8.27-9.4-15.74-19.74-22.3-30.85-4.52-7.66-6.9-16.39-6.9-25.29h0s29.28,0,29.28,0Z" class="cls-3"/>
  <path d="m723.69,453.94c0,39.79-10.34,77.16-28.48,109.58-5.2,9.3-11.05,18.2-17.49,26.63-5.7,7.47-11.86,14.58-18.44,21.27-2.24,2.29-4.54,4.54-6.89,6.72-5.86,5.49-12.02,10.66-18.44,15.48-5.93,4.47-12.08,8.64-18.44,12.51-2.12,1.28-4.25,2.54-6.42,3.75-5.98,3.38-12.14,6.48-18.45,9.3-6.01,2.69-12.16,5.13-18.44,7.29-2.12.73-4.26,1.43-6.42,2.1-6.04,1.88-12.19,3.51-18.44,4.88-6.06,1.33-12.21,2.42-18.45,3.25-2.12.28-4.27.54-6.41.76h0c-7.36.77-14.82,1.18-22.38,1.21-.38,0-.75,0-1.13,0-7.17,0-14.25-.33-21.25-.99-2.15-.21-4.29-.44-6.42-.7-12.65-1.55-24.98-4.15-36.89-7.72-2.15-.64-4.29-1.32-6.42-2.03-12.85-4.27-25.19-9.68-36.89-16.1-2.21-1.2-4.39-2.45-6.54-3.73-13.18-7.81-25.49-16.93-36.76-27.18-2.22-2.02-4.4-4.08-6.54-6.19-14.32-14.1-26.75-30.1-36.89-47.61-19.17-33.08-30.14-71.5-30.14-112.49,0-124.12,100.62-224.73,224.73-224.73s224.73,100.61,224.73,224.73Z" class="cls-7"/>
  <path d="m681.6,524.19l-8.81-2.7c5.32-17.34,8.01-35.33,8.01-53.46,0-24.56-4.8-48.37-14.28-70.77-9.16-21.65-22.27-41.1-38.98-57.81-16.71-16.71-36.16-29.82-57.81-38.98-14.11-5.97-28.91-10.12-44-12.34l1.34-9.11c15.86,2.33,31.42,6.69,46.25,12.96,22.75,9.62,43.18,23.4,60.73,40.95,17.55,17.55,31.33,37.98,40.95,60.73,9.96,23.54,15.01,48.56,15.01,74.36,0,19.05-2.83,37.94-8.42,56.16Z" class="cls-5"/>
  <path d="m316.32,524.19c-5.58-18.2-8.41-37.1-8.41-56.16,0-25.8,5.05-50.82,15.01-74.36,9.62-22.75,23.4-43.18,40.95-60.73,17.55-17.55,37.99-31.33,60.73-40.95,15.49-6.55,31.76-11.01,48.37-13.26l1.24,9.13c-15.8,2.14-31.28,6.39-46.02,12.62-21.65,9.16-41.1,22.27-57.81,38.98-16.71,16.71-29.82,36.16-38.98,57.81-9.48,22.4-14.28,46.22-14.28,70.77,0,18.15,2.69,36.13,8.01,53.46l-8.81,2.7Z" class="cls-5"/>
  <path d="m599.95,428.98l-1.08,186.91c-5.31,3.98-10.78,7.02-16.38,10.34v-197.25h17.46Z" class="cls-8"/>
  <path d="m639.66,486.37l-1.61,95.81c-5.13,5.77-10.5,11.23-16.1,16.35v-112.15h.81s16.91,0,16.91,0Z" class="cls-8"/>
  <path d="m674.56,527.6c-1.82,11.89-8.79,23.17-13.91,30.9-.13.19-.25.38-.38.57v-31.46h14.29Z" class="cls-8"/>
  <text transform="translate(358.25 772.05)" class="cls-2"><tspan y="0" x="0" class="cls-11">P</tspan><tspan y="0" x="37.7" class="cls-4">i</tspan><tspan y="0" x="58.26" class="cls-9">l</tspan><tspan y="0" x="75.27" class="cls-12">l</tspan><tspan y="0" x="90.96">ar</tspan></text>
  <text transform="translate(521.27 772.05)" class="cls-1"><tspan y="0" x="0">CRM</tspan></text>
</svg>